<svg xmlns="http://www.w3.org/2000/svg" xmlns:xlink="http://www.w3.org/1999/xlink" width="500" zoomAndPan="magnify" viewBox="0 0 375 374.999991" height="500" preserveAspectRatio="xMidYMid meet" version="1.2"><defs/><g id="9bc7ecf2c6"><g style="fill:#c9fd06;fill-opacity:1;"><g transform="translate(80.364612, 313.054761)"><path style="stroke:none" d="M -7.433594 0 L -7.433594 -34.847656 L -6.480469 -37.050781 C 9.152344 -73.207031 20.707031 -104.308594 28.183594 -130.355469 C 35.496094 -155.835938 39.152344 -175.886719 39.152344 -190.507812 L 39.152344 -211.535156 C 39.152344 -211.386719 39.207031 -211.136719 39.3125 -210.785156 C 39.589844 -209.867188 40.089844 -209.007812 40.808594 -208.21875 C 41.632812 -207.308594 42.597656 -206.65625 43.703125 -206.25 C 44.3125 -206.027344 44.847656 -205.914062 45.316406 -205.914062 C 46.277344 -205.914062 47.25 -206.144531 48.222656 -206.597656 C 49.394531 -207.144531 50.355469 -207.921875 51.105469 -208.925781 C 51.554688 -209.519531 51.855469 -210.09375 52.015625 -210.644531 C 52.027344 -210.691406 52.039062 -210.730469 52.042969 -210.761719 L 52.042969 -210.746094 C 52.027344 -210.644531 52.015625 -210.511719 52.003906 -210.347656 L 40.421875 -210.992188 L 52.019531 -210.757812 L 51.929688 -206.226562 C 51.871094 -203.519531 51.839844 -200.089844 51.839844 -195.945312 L 51.839844 -141.566406 L -7.070312 -141.566406 L -7.070312 -210.839844 L -7.0625 -211.050781 C -6.453125 -227.734375 -1.117188 -240.382812 8.957031 -248.992188 C 18.621094 -257.253906 32.492188 -261.382812 50.574219 -261.382812 C 69.890625 -261.382812 84.585938 -257.707031 94.65625 -250.363281 C 100.328125 -246.226562 104.601562 -240.972656 107.480469 -234.59375 C 110.1875 -228.59375 111.582031 -221.734375 111.65625 -214.003906 L 111.660156 -192.320312 C 111.660156 -175.464844 108.832031 -153.210938 103.175781 -125.558594 C 97.597656 -98.28125 89.070312 -66.332031 77.59375 -29.703125 L 66.523438 -33.171875 L 78.125 -33.171875 L 78.125 -32.082031 L 66.523438 -32.082031 L 66.523438 -43.683594 L 112.019531 -43.683594 L 112.019531 11.601562 L -7.433594 11.601562 Z M 15.769531 0 L 4.167969 0 L 4.167969 -11.601562 L 100.417969 -11.601562 L 100.417969 0 L 88.820312 0 L 88.820312 -32.082031 L 100.417969 -32.082031 L 100.417969 -20.484375 L 54.921875 -20.484375 L 54.921875 -34.945312 L 55.453125 -36.640625 C 66.695312 -72.515625 75.023438 -103.703125 80.445312 -130.207031 C 85.785156 -156.324219 88.457031 -177.03125 88.457031 -192.320312 L 88.457031 -213.777344 C 88.414062 -218.253906 87.707031 -222.011719 86.335938 -225.046875 C 85.136719 -227.699219 83.351562 -229.890625 80.984375 -231.617188 C 74.988281 -235.992188 64.847656 -238.179688 50.574219 -238.179688 C 38.203125 -238.179688 29.355469 -235.90625 24.03125 -231.355469 C 19.121094 -227.15625 16.484375 -220.105469 16.125 -210.207031 L 4.53125 -210.628906 L 16.132812 -210.628906 L 16.132812 -153.167969 L 4.53125 -153.167969 L 4.53125 -164.769531 L 40.242188 -164.769531 L 40.242188 -153.167969 L 28.640625 -153.167969 L 28.640625 -195.945312 C 28.640625 -200.257812 28.671875 -203.839844 28.734375 -206.691406 L 28.828125 -211.429688 L 28.839844 -211.632812 C 29.089844 -216.148438 30.324219 -219.882812 32.546875 -222.84375 C 34.113281 -224.9375 36.0625 -226.527344 38.398438 -227.617188 C 40.535156 -228.617188 42.84375 -229.117188 45.316406 -229.117188 C 50.550781 -229.117188 54.769531 -227.351562 57.976562 -223.824219 C 60.894531 -220.613281 62.355469 -216.519531 62.355469 -211.535156 L 62.355469 -190.507812 C 62.355469 -173.710938 58.398438 -151.527344 50.484375 -123.957031 C 42.734375 -96.953125 30.84375 -64.914062 14.816406 -27.84375 L 4.167969 -32.445312 L 15.769531 -32.445312 Z M 15.769531 0 "/></g></g><g style="fill:#c9fd06;fill-opacity:1;"><g transform="translate(184.953591, 313.054761)"><path style="stroke:none" d="M 41.507812 0 L 41.507812 -55.828125 L 53.109375 -55.828125 L 53.109375 -44.226562 L -9.96875 -44.226562 L -9.96875 -89.589844 L 17.894531 -258.121094 L 110.363281 -258.121094 L 110.753906 -88.664062 L 99.152344 -88.636719 L 99.152344 -100.238281 L 119.269531 -100.238281 L 119.269531 -44.226562 L 99.152344 -44.226562 L 99.152344 -55.828125 L 110.753906 -55.828125 L 110.753906 11.601562 L 41.507812 11.601562 Z M 64.710938 0 L 53.109375 0 L 53.109375 -11.601562 L 99.152344 -11.601562 L 99.152344 0 L 87.550781 0 L 87.550781 -67.429688 L 107.671875 -67.429688 L 107.671875 -55.828125 L 96.070312 -55.828125 L 96.070312 -88.636719 L 107.671875 -88.636719 L 107.671875 -77.035156 L 87.578125 -77.035156 L 87.1875 -246.492188 L 98.789062 -246.519531 L 98.789062 -234.917969 L 27.734375 -234.917969 L 27.734375 -246.519531 L 39.179688 -244.625 L 13.078125 -86.746094 L 1.632812 -88.636719 L 13.230469 -88.636719 L 13.230469 -55.828125 L 1.632812 -55.828125 L 1.632812 -67.429688 L 64.710938 -67.429688 Z M 40.058594 -100.238281 L 53.109375 -100.238281 L 53.109375 -88.636719 L 41.507812 -88.636719 L 41.507812 -212.621094 L 53.109375 -212.621094 L 53.109375 -201.019531 L 51.117188 -201.019531 L 51.117188 -212.621094 L 62.671875 -211.589844 L 51.613281 -87.605469 L 40.058594 -88.636719 Z M 27.378906 -77.035156 L 40.503906 -224.222656 L 64.710938 -224.222656 L 64.710938 -77.035156 Z M 27.378906 -77.035156 "/></g></g><g style="fill:#c9fd06;fill-opacity:1;"><g transform="translate(294.622928, 313.054761)"><path style="stroke:none" d=""/></g></g><g style="fill:#5e17eb;fill-opacity:1;"><g transform="translate(80.364612, 313.054761)"><path style="stroke:none" d="M 4.171875 0 L 4.171875 -32.453125 C 20.003906 -69.066406 31.722656 -100.632812 39.328125 -127.15625 C 46.941406 -153.6875 50.75 -174.804688 50.75 -190.515625 L 50.75 -211.53125 C 50.75 -215.519531 48.9375 -217.515625 45.3125 -217.515625 C 42.289062 -217.515625 40.660156 -215.34375 40.421875 -211 C 40.421875 -210.75 40.390625 -209.234375 40.328125 -206.453125 C 40.265625 -203.679688 40.234375 -200.179688 40.234375 -195.953125 C 40.234375 -191.722656 40.234375 -187.191406 40.234375 -182.359375 C 40.234375 -177.523438 40.234375 -172.960938 40.234375 -168.671875 C 40.234375 -164.378906 40.234375 -160.8125 40.234375 -157.96875 C 40.234375 -155.132812 40.234375 -153.535156 40.234375 -153.171875 L 4.53125 -153.171875 L 4.53125 -210.625 C 5.007812 -223.925781 8.992188 -233.773438 16.484375 -240.171875 C 23.984375 -246.578125 35.347656 -249.78125 50.578125 -249.78125 C 67.367188 -249.78125 79.78125 -246.847656 87.8125 -240.984375 C 95.851562 -235.128906 99.9375 -226.097656 100.0625 -213.890625 L 100.0625 -192.328125 C 100.0625 -176.253906 97.3125 -154.769531 91.8125 -127.875 C 86.3125 -100.988281 77.882812 -69.421875 66.53125 -33.171875 L 66.53125 -32.078125 L 100.421875 -32.078125 L 100.421875 0 Z M 4.171875 0 "/></g><g transform="translate(184.953588, 313.054761)"><path style="stroke:none" d="M 53.109375 0 L 53.109375 -55.828125 L 1.625 -55.828125 L 1.625 -88.640625 L 27.734375 -246.515625 L 98.796875 -246.515625 L 99.15625 -88.640625 L 107.671875 -88.640625 L 107.671875 -55.828125 L 99.15625 -55.828125 L 99.15625 0 Z M 40.0625 -88.640625 L 53.109375 -88.640625 L 53.109375 -212.625 L 51.125 -212.625 Z M 40.0625 -88.640625 "/></g></g><g style="fill:#5e17eb;fill-opacity:1;"><g transform="translate(294.622928, 313.054761)"><path style="stroke:none" d=""/></g></g><path style=" stroke:none;fill-rule:nonzero;fill:#c9fd06;fill-opacity:1;" d="M 125.625 226.703125 L 316.921875 177.441406 C 320.90625 176.417969 324.964844 178.8125 325.992188 182.796875 L 333.203125 210.800781 C 334.226562 214.785156 331.832031 218.84375 327.847656 219.871094 L 136.550781 269.132812 C 132.566406 270.15625 128.503906 267.757812 127.480469 263.777344 L 120.269531 235.773438 C 119.242188 231.789062 121.640625 227.726562 125.625 226.703125 Z M 125.625 226.703125 "/><g style="fill:#1800ad;fill-opacity:1;"><g transform="translate(132.594314, 258.389298)"><path style="stroke:none" d="M 18.140625 -16.71875 L 15.296875 -27.640625 L 24.046875 -29.890625 L 29.765625 -7.65625 L 21.375 -5.5 L 7.3125 -14.453125 L 10.34375 -2.671875 L 1.65625 -0.421875 L -4.0625 -22.65625 L 5.28125 -25.0625 Z M 18.140625 -16.71875 "/></g></g><g style="fill:#1800ad;fill-opacity:1;"><g transform="translate(163.961072, 250.312126)"><path style="stroke:none" d="M 5.375 -25.09375 L 11.09375 -2.859375 L 1.671875 -0.4375 L -4.046875 -22.671875 Z M 5.375 -25.09375 "/></g></g><g style="fill:#1800ad;fill-opacity:1;"><g transform="translate(176.708571, 247.029551)"><path style="stroke:none" d="M -1.53125 -7.953125 L 8.296875 -10.484375 C 8.472656 -10.160156 8.742188 -9.878906 9.109375 -9.640625 C 9.472656 -9.398438 10.039062 -9.28125 10.8125 -9.28125 C 11.582031 -9.28125 12.648438 -9.457031 14.015625 -9.8125 C 15.429688 -10.175781 16.46875 -10.515625 17.125 -10.828125 C 17.78125 -11.140625 18.191406 -11.421875 18.359375 -11.671875 C 18.535156 -11.921875 18.601562 -12.132812 18.5625 -12.3125 C 18.519531 -12.457031 18.425781 -12.582031 18.28125 -12.6875 C 18.132812 -12.800781 17.859375 -12.878906 17.453125 -12.921875 C 17.046875 -12.972656 16.453125 -12.960938 15.671875 -12.890625 C 14.890625 -12.828125 13.84375 -12.679688 12.53125 -12.453125 C 9.613281 -11.921875 7.203125 -11.617188 5.296875 -11.546875 C 3.390625 -11.472656 1.875 -11.597656 0.75 -11.921875 C -0.363281 -12.253906 -1.207031 -12.757812 -1.78125 -13.4375 C -2.363281 -14.125 -2.78125 -14.945312 -3.03125 -15.90625 C -3.269531 -16.832031 -3.265625 -17.785156 -3.015625 -18.765625 C -2.765625 -19.742188 -2.191406 -20.703125 -1.296875 -21.640625 C -0.410156 -22.585938 0.863281 -23.484375 2.53125 -24.328125 C 4.195312 -25.171875 6.316406 -25.921875 8.890625 -26.578125 C 11.515625 -27.253906 13.789062 -27.597656 15.71875 -27.609375 C 17.644531 -27.628906 19.269531 -27.398438 20.59375 -26.921875 C 21.925781 -26.441406 22.992188 -25.773438 23.796875 -24.921875 C 24.609375 -24.078125 25.207031 -23.109375 25.59375 -22.015625 L 15.765625 -19.484375 C 15.609375 -19.816406 15.351562 -20.09375 15 -20.3125 C 14.65625 -20.539062 14.128906 -20.660156 13.421875 -20.671875 C 12.710938 -20.691406 11.738281 -20.539062 10.5 -20.21875 C 9.289062 -19.90625 8.382812 -19.601562 7.78125 -19.3125 C 7.1875 -19.03125 6.796875 -18.769531 6.609375 -18.53125 C 6.429688 -18.300781 6.375 -18.078125 6.4375 -17.859375 C 6.476562 -17.703125 6.578125 -17.566406 6.734375 -17.453125 C 6.890625 -17.335938 7.160156 -17.257812 7.546875 -17.21875 C 7.941406 -17.175781 8.535156 -17.1875 9.328125 -17.25 C 10.117188 -17.3125 11.179688 -17.457031 12.515625 -17.6875 C 15.484375 -18.207031 17.929688 -18.503906 19.859375 -18.578125 C 21.796875 -18.648438 23.332031 -18.519531 24.46875 -18.1875 C 25.601562 -17.851562 26.457031 -17.347656 27.03125 -16.671875 C 27.601562 -16.003906 28.007812 -15.195312 28.25 -14.25 C 28.488281 -13.332031 28.476562 -12.390625 28.21875 -11.421875 C 27.957031 -10.453125 27.359375 -9.488281 26.421875 -8.53125 C 25.492188 -7.570312 24.148438 -6.660156 22.390625 -5.796875 C 20.628906 -4.929688 18.382812 -4.148438 15.65625 -3.453125 C 12.882812 -2.734375 10.5 -2.34375 8.5 -2.28125 C 6.5 -2.21875 4.828125 -2.421875 3.484375 -2.890625 C 2.140625 -3.359375 1.0625 -4.03125 0.25 -4.90625 C -0.550781 -5.78125 -1.144531 -6.796875 -1.53125 -7.953125 Z M -1.53125 -7.953125 "/></g></g><g style="fill:#1800ad;fill-opacity:1;"><g transform="translate(207.253912, 239.163899)"><path style="stroke:none" d="M 16.390625 -19.890625 L 14.453125 -27.421875 L 23.796875 -29.828125 L 29.515625 -7.59375 L 20.171875 -5.1875 L 18.234375 -12.703125 L 9.09375 -10.359375 L 11.03125 -2.84375 L 1.65625 -0.421875 L -4.0625 -22.65625 L 5.3125 -25.078125 L 7.25 -17.546875 Z M 16.390625 -19.890625 "/></g></g><g style="fill:#1800ad;fill-opacity:1;"><g transform="translate(238.377296, 231.149397)"><path style="stroke:none" d="M 13.671875 -27.234375 L 29.265625 -7.53125 L 19.953125 -5.140625 L 17.796875 -7.921875 L 9 -5.65625 L 8.46875 -2.1875 L -0.84375 0.21875 L 3.265625 -24.546875 Z M 14.125 -13.390625 L 10.359375 -18.546875 L 9.546875 -12.203125 Z M 14.125 -13.390625 "/></g></g><g style="fill:#1800ad;fill-opacity:1;"><g transform="translate(266.762541, 223.839986)"><path style="stroke:none" d="M 18.140625 -16.71875 L 15.296875 -27.640625 L 24.046875 -29.890625 L 29.765625 -7.65625 L 21.375 -5.5 L 7.3125 -14.453125 L 10.34375 -2.671875 L 1.65625 -0.421875 L -4.0625 -22.65625 L 5.28125 -25.0625 Z M 18.140625 -16.71875 "/></g></g><g style="fill:#1800ad;fill-opacity:1;"><g transform="translate(298.129299, 215.762814)"><path style="stroke:none" d="M 5.859375 -17.21875 L -3.1875 -14.890625 L -5.109375 -22.390625 L 22.328125 -29.453125 L 24.25 -21.953125 L 15.265625 -19.640625 L 19.0625 -4.90625 L 9.65625 -2.484375 Z M 5.859375 -17.21875 "/></g></g><g style="fill:#1800ad;fill-opacity:1;"><g transform="translate(326.786701, 208.383321)"><path style="stroke:none" d=""/></g></g></g></svg>